<?xml version="1.0" encoding="utf-8"?>
<!-- Generator: Adobe Illustrator 27.2.0, SVG Export Plug-In . SVG Version: 6.00 Build 0)  -->
<svg version="1.1" id="Layer_1" xmlns="http://www.w3.org/2000/svg" xmlns:xlink="http://www.w3.org/1999/xlink" x="0px" y="0px"
	 viewBox="0 0 507.4 122.3" style="enable-background:new 0 0 507.4 122.3;" xml:space="preserve">
<style type="text/css">
	.st0{fill:#006837;}
	.st1{fill:#00B400;}
	.st2{fill:#00FF00;}
</style>
<g>
	<g>
		<g>
			<path class="st0" d="M505.2,82.9c-40.9,22.6-135.5,37.2-241.8,37.2c-128.7,0-237-48.6-258.5-59c21.6-10.3,129.9-59,258.5-59
				c106.2,0,200.9,14.6,241.8,37.2L505.2,82.9L505.2,82.9z"/>
			<path class="st1" d="M10,61.1C38.7,47.8,142,4.3,263.4,4.3c105,0,198.4,14.2,239.6,36.3v41c-41.2,22.1-134.7,36.3-239.6,36.3
				C142,118,38.7,74.5,10,61.1 M0,61.1c0,0,117.9,61.1,263.4,61.1c110.3,0,204.7-15.7,244-38.1V38.1C468.1,15.7,373.7,0,263.4,0
				C117.9,0,0,61.1,0,61.1L0,61.1z"/>
		</g>
	</g>
	<g>
		<g>
			<g>
				<path class="st1" d="M129.7,46.6v3H98.3v4.4h31.5v5H98.3v4.4h31.5v5H98.3v4.4h31.5v3c0,4.6,3.8,8.4,8.4,8.4h17.1
					c4.6,0,8.4-3.8,8.4-8.4V46.6c0-4.6-3.8-8.4-8.4-8.4h-17.1C133.5,38.2,129.7,42,129.7,46.6z"/>
			</g>
		</g>
		<g>
			<g>
				<polygon class="st1" points="188.3,12.2 188.3,23 182,23 167.2,36 167.2,85 182,98 188.3,98 188.3,110 198,110 198,98 228.9,98 
					228.9,23 198,23 198,12.2 				"/>
			</g>
		</g>
	</g>
	<g>
		<g>
			<g>
				<path class="st1" d="M415.4,75.7v-3h31.5v-4.4h-31.5v-5h31.5v-4.4h-31.5v-5h31.5v-4.4h-31.5v-3c0-4.6-3.8-8.4-8.4-8.4h-17.1
					c-4.6,0-8.4,3.8-8.4,8.4v29.1c0,4.6,3.8,8.4,8.4,8.4H407C411.6,84.1,415.4,80.3,415.4,75.7z"/>
			</g>
		</g>
		<g>
			<g>
				<polygon class="st1" points="356.8,110 356.8,99.3 363.1,99.3 377.9,86.3 377.9,37.2 363.1,24.3 356.8,24.3 356.8,12.2 
					347.1,12.2 347.1,24.3 316.2,24.3 316.2,99.3 347.1,99.3 347.1,110 				"/>
			</g>
		</g>
	</g>
	<g>
		<g>
			<polygon class="st1" points="241.9,34.7 241.9,87.6 272.5,114.1 303.2,87.6 303.2,34.7 272.5,8.2 			"/>
		</g>
	</g>
	<g>
		<g>
			<circle class="st1" cx="247.1" cy="106.9" r="5.1"/>
			<circle class="st1" cx="303.2" cy="106.9" r="5.1"/>
			<circle class="st1" cx="247.1" cy="15.3" r="5.1"/>
			<circle class="st1" cx="303.2" cy="15.3" r="5.1"/>
		</g>
	</g>
	<g>
		<g>
			<polygon class="st2" points="254.9,48.1 254.9,61.1 254.9,74.2 272.5,85.4 290.2,85.4 290.2,61.1 290.2,36.9 272.5,36.9 			"/>
		</g>
	</g>
</g>
</svg>
