<?xml version="1.0" encoding="utf-8"?>
<!-- Generator: Adobe Illustrator 27.2.0, SVG Export Plug-In . SVG Version: 6.00 Build 0)  -->
<svg version="1.1" id="Layer_1" xmlns="http://www.w3.org/2000/svg" xmlns:xlink="http://www.w3.org/1999/xlink" x="0px" y="0px"
	 viewBox="0 0 630.2 129.5" style="enable-background:new 0 0 630.2 129.5;" xml:space="preserve">
<style type="text/css">
	.st0{fill:#006837;}
	.st1{fill:#00FF00;}
	.st2{fill:#00B400;}
</style>
<g>
	<polygon class="st0" points="520.1,12.7 532.7,13.7 532.7,13.6 520.1,12.7 520.1,2.2 513.9,2.2 513.9,2.2 520.1,2.2 	"/>
	<path class="st0" d="M589.1,19.3l25.2-2l7.8,31.2v26.6l0,0V48.5l-7.8-31.2L589.1,19.3C586.5,16.7,572,2.2,572,2.2h-34l0,0h34
		L589.1,19.3z"/>
	<polygon class="st0" points="310.4,123.2 310.4,114 310.4,114 	"/>
	<path class="st0" d="M533.7,121.6L533.7,121.6l11.1-29.2h0L533.7,121.6z"/>
	<path class="st0" d="M609.5,55L605,31L161.5,92l8.1,5.1l4.9-1.8l1.8-0.7l1.7,1l6.5,3.7l2.1,1.2v2.4v1.6l12.2,7.4l-0.1-0.4L609.5,55
		z M190.5,100.4l179.1-24.6c-1.2-0.1-2-0.3-2-0.3s5.8-2.7,8.7-3.1c1.5-0.2,2.7-0.9,3.7-1.1l0,0c0,0,5.4-9.1,5.4-9s-2.2,0.3-2.2,0.3
		l-0.5-0.4l0.3-0.5l7.1-1l0.4,0.3l-0.5,0.7c0,0-0.7,0-0.8,0.1s-1.3,7.2-1.3,7.2l2.8,0.2l2.6-5l2.5-0.4l-0.8,7.5l0,0.2v0.2l0.2,0.5
		l208.2-28.6l0.1,1.1L395.7,73.2l2.2,5.4l-2.5,0.4l-4-4.1l-2.6,1c0,0,3.2,6.5,3.3,6.5c0.1,0.1,0.8-0.1,0.8-0.1l0.7,0.5l-0.3,0.4
		l-7.1,1l-0.5-0.3l0.4-0.5c0,0,2.2-0.5,2.2-0.3c0,0.1-7.8-7.1-7.8-7.1l0,0c-1,0.1-2.4-0.2-3.8,0c-0.6,0.1-1.4,0.1-2.2,0.1
		l-184.1,25.3L190.5,100.4z"/>
	<polygon class="st0" points="616.5,81.3 616.5,81.3 617.7,76.4 617.7,76.4 	"/>
	<path class="st0" d="M586.4,87.8c0,0.1,0.1,0.1,0.2,0.1c0.1,0,0.1,0,0,0c-0.7,0,0.3-1,1.6-2.1C587.3,86.7,586.4,87.5,586.4,87.8z"
		/>
	<polygon class="st0" points="18.4,61.6 200.8,50 200.8,42.2 18.4,53.8 	"/>
	<polygon class="st0" points="18.4,62.6 18.4,71.5 200.8,59.9 200.8,51.1 	"/>
	<path class="st0" d="M251.6,22.6l-8.3-7.1l-1.5-13.3h-42.6l-53.5,28.8l-10.5-5.6l-13.9,6.8L13.4,42.1l-9,7.1H0.9v0h3.5l9-7.1
		l7.3-0.7l-15.6,12v20.3h4.1L18.9,85l114.3,6.5l23.8-3.1v0l451.4-62.1l6.2,32.3l-2.2,0.3L204,115l4,2.4l97.4,0.3l5.3-5.3l1.2-1.2
		h1.8h27.7h1.8l1.2,1.2l5.3,5.3l4,4h-5.9c1.4,1.3,162.3,0.1,183.6,0h-2.2l12.6-33.1l42.2-4.5l5.3-4.3l23.9-2.3l1.1-4.4l3.7-1V49.1
		l-6.8-27.2L587.3,24L569.7,6.4h-29l-4.1,9l-1.2,2.7l-17.2-1.3v15.9h-32.8l-19-19v3.9l-0.4,0.4l-0.5-0.4c0,0-0.1-2.3,0-2.3
		s-8.1,6.7-8.1,6.7l0,0c0,1-0.6,2.3-0.6,3.8c0,2.9-1.8,9.1-1.8,9.1s-1.8-6.1-1.8-9.1c0-1.5-0.5-2.8-0.6-3.8l0,0c0,0-8.2-6.7-8.1-6.7
		c0.1,0,0,2.3,0,2.3l-0.5,0.4l-0.4-0.4v-7.1l0.3-0.3l0.6,0.6c0,0-0.1,0.7,0,0.8s7,2.3,7,2.3l0.6-2.7l-4.6-3.3V5.4l7.3,1.8l0.2,0
		l0.2,0l7.3-1.8v2.5l-4.6,3.3l0.6,2.7c0,0,5.8-1.9,6.8-2.3V6.4V2.2h4.2v8.7L487,28.5h26.9v0H487l-17.6-17.6V2.2H286.2v29.1h-34.6
		L251.6,22.6L251.6,22.6z M520.5,99.5c0,1.5,0.5,2.8,0.6,3.8l0,0c0,0,8.2,6.7,8.1,6.7c-0.1,0,0-2.3,0-2.3l0.5-0.5l0.4,0.4v7.1
		l-0.3,0.3l-0.6-0.6c0,0,0.1-0.7,0-0.8s-7-2.3-7-2.3l-0.6,2.7l4.6,3.3v2.5l-7.3-1.8l-0.2,0l-0.2,0l-7.3,1.8v-2.5l4.6-3.3l-0.6-2.7
		c0,0-6.9,2.3-6.9,2.3s0,0.8,0,0.8l-0.6,0.6l-0.3-0.3v-7.1l0.4-0.4l0.5,0.5c0,0,0.1,2.3,0,2.3s8.1-6.7,8.1-6.7l0,0
		c0-1,0.6-2.3,0.6-3.8c0-2.9,1.8-9.1,1.8-9.1S520.5,96.5,520.5,99.5z M495.1,99.5c0,1.5,0.5,2.8,0.6,3.8l0,0c0,0,8.2,6.7,8.1,6.7
		s0-2.3,0-2.3l0.5-0.5l0.4,0.4v7.1l-0.3,0.3l-0.6-0.6c0,0,0.1-0.7,0-0.8s-7-2.3-7-2.3l-0.6,2.7l4.6,3.3v2.5l-7.3-1.8l-0.2,0l-0.2,0
		l-7.3,1.8v-2.5l4.6-3.3l-0.6-2.7c0,0-6.9,2.3-7,2.3s0,0.8,0,0.8l-0.6,0.6l-0.3-0.3v-7.1l0.4-0.4l0.5,0.5c0,0,0.1,2.3,0,2.3
		s8.1-6.7,8.1-6.7l0,0c0-1,0.6-2.3,0.6-3.8c0-2.9,1.8-9.1,1.8-9.1S495.1,96.5,495.1,99.5z M469.7,99.5c0,1.5,0.5,2.8,0.6,3.8l0,0
		c0,0,8.2,6.7,8.1,6.7s0-2.3,0-2.3l0.5-0.5l0.4,0.4v7.1l-0.3,0.3l-0.6-0.6c0,0,0.1-0.7,0-0.8s-7-2.3-7-2.3l-0.6,2.7l4.6,3.3v2.5
		l-7.3-1.8l-0.2,0l-0.2,0l-7.3,1.8v-2.5l4.6-3.3l-0.6-2.7c0,0-6.9,2.3-7,2.3s0,0.8,0,0.8l-0.6,0.6l-0.3-0.3v-7.1l0.4-0.4l0.5,0.5
		c0,0,0.1,2.3,0,2.3s8.1-6.7,8.1-6.7l0,0c0-1,0.6-2.3,0.6-3.8c0-2.9,1.8-9.1,1.8-9.1S469.7,96.5,469.7,99.5z M444.4,99.5
		c0,1.5,0.5,2.8,0.6,3.8l0,0c0,0,8.2,6.7,8.1,6.7c-0.1,0,0-2.3,0-2.3l0.5-0.5l0.4,0.4v7.1l-0.3,0.3l-0.6-0.6c0,0,0.1-0.7,0-0.8
		s-7-2.3-7-2.3l-0.6,2.7l4.6,3.3v2.5l-7.3-1.8l-0.2,0l-0.2,0l-7.3,1.8v-2.5l4.6-3.3l-0.6-2.7c0,0-6.9,2.3-7,2.3s0,0.8,0,0.8
		l-0.6,0.6l-0.3-0.3v-7.1l0.4-0.4l0.5,0.5c0,0,0.1,2.3,0,2.3s8.1-6.7,8.1-6.7l0,0c0-1,0.6-2.3,0.6-3.8c0-2.9,1.8-9.1,1.8-9.1
		S444.4,96.5,444.4,99.5z M205,63.9L14.2,76V49.8L205,37.7L205,63.9L205,63.9z M428.1,7.2l0.2,0l7.3-1.8v2.5l-4.6,3.3l0.6,2.7
		c0,0,6.9-2.3,7-2.3s0-0.8,0-0.8l0.6-0.6l0.3,0.3v7.1l-0.4,0.4l-0.5-0.4c0,0-0.1-2.3,0-2.3s-8.1,6.7-8.1,6.7l0,0
		c0,1-0.6,2.3-0.6,3.8c0,2.9-1.8,9.1-1.8,9.1s-1.8-6.1-1.8-9.1c0-1.5-0.5-2.8-0.6-3.8l0,0c0,0-8.2-6.7-8.1-6.7s0,2.3,0,2.3l-0.5,0.4
		l-0.4-0.4v-7.1l0.3-0.3l0.6,0.6c0,0-0.1,0.7,0,0.8s7,2.3,7,2.3l0.6-2.7l-4.6-3.3V5.4l7.3,1.8L428.1,7.2z M402.4,11.4h6v17.5h-6
		v-2.6h-20.5V14h20.5V11.4z M353.6,7.2l0.2,0l7.3-1.8v2.5l-4.6,3.3l0.6,2.7c0,0,6.9-2.3,7-2.3s0-0.8,0-0.8l0.6-0.6l0.3,0.3v7.1
		l-0.4,0.4l-0.5-0.4c0,0-0.1-2.3,0-2.3S356,22,356,22l0,0c0,1-0.6,2.3-0.6,3.8c0,2.9-1.8,9.1-1.8,9.1s-1.8-6.1-1.8-9.1
		c0-1.5-0.5-2.8-0.6-3.8l0,0c0,0-8.2-6.7-8.1-6.7s0,2.3,0,2.3l-0.5,0.4l-0.4-0.4v-7.1l0.3-0.3l0.6,0.6c0,0-0.1,0.7,0,0.8
		s7,2.3,7,2.3l0.6-2.7l-4.6-3.3V5.4l7.3,1.8L353.6,7.2z M324.3,25.8c0-1.5-0.5-2.8-0.6-3.8l0,0c0,0-8.2-6.7-8.1-6.7s0,2.3,0,2.3
		l-0.5,0.4l-0.4-0.4v-7.1l0.3-0.3l0.6,0.6c0,0-0.1,0.7,0,0.8s7,2.3,7,2.3l0.6-2.7l-4.6-3.3V5.4l7.3,1.8l0.2,0l0.2,0l7.3-1.8v2.5
		l-4.6,3.3l0.6,2.7c0,0,6.9-2.3,7-2.3s0-0.8,0-0.8l0.6-0.6l0.3,0.3v7.1l-0.4,0.4l-0.5-0.4c0,0-0.1-2.3,0-2.3s-8.1,6.7-8.1,6.7l0,0
		c0,1-0.6,2.3-0.6,3.8c0,2.9-1.8,9.1-1.8,9.1S324.3,28.7,324.3,25.8z M225.6,34.9c0,0-1.8-6.1-1.8-9.1c0-1.5-0.5-2.8-0.6-3.8l0,0
		c0,0-8.2-6.7-8.1-6.7s0,2.3,0,2.3l-0.4,0.4l-0.4-0.4v-7.1l0.3-0.3l0.6,0.6c0,0-0.1,0.7,0,0.8s6.9,2.3,6.9,2.3l0.6-2.7l-4.6-3.3V5.4
		l7.3,1.8l0.2,0l0.2,0l7.3-1.8v2.5l-4.6,3.3l0.6,2.7c0,0,6.9-2.3,6.9-2.3c0.1-0.1,0-0.8,0-0.8l0.6-0.6l0.3,0.3v7.1l-0.4,0.4
		l-0.4-0.4c0,0-0.1-2.3,0-2.3S228,22,228,22l0,0c0,1-0.6,2.3-0.6,3.8C227.4,28.7,225.6,34.9,225.6,34.9z"/>
	<path class="st0" d="M589,85.2c0,0-0.1,0.1-0.1,0.1C589,85.2,589,85.2,589,85.2z"/>
	<path class="st0" d="M588.6,85.5c-0.1,0.1-0.3,0.2-0.4,0.3C588.4,85.7,588.5,85.6,588.6,85.5z"/>
	<path class="st1" d="M349.7,117.7l-5.3-5.3l-1.2-1.2h-1.8h-27.7h-1.8l-1.2,1.2l-5.3,5.3l-97.4-0.3l-4-2.4l-4.6,0.6l-0.5-3.7
		l-12.2-7.4v-1.6v-2.5l-2.1-1.2l-6.5-3.7l-1.7-1l-1.8,0.7l-4.9,1.8l-8.1-5.1l-4,0.5l-0.6-4.1l-23.8,3.1l-0.1,0l21.8,1.2l14.2,9
		l6.8-2.5l6.5,3.7v4l24.4,14.7l100.4,0.3l0,0l6.5-6.5l0,0h27.7l6.3,6.3c0,0,0,0,0,0h0h5.9L349.7,117.7z"/>
	<polygon class="st1" points="5.1,73.7 5.1,53.4 20.7,41.4 13.4,42.1 4.4,49.2 0.9,49.2 0.9,49.2 0.9,77.9 7.2,77.9 13.1,84.7 
		18.9,85 18.9,85 9.1,73.7 	"/>
	<path class="st1" d="M487,28.5l-17.6-17.6V2.2h-4.2v4.2v5.3c0.1,0,0.2-0.1,0.2-0.1c0.1-0.1,0-0.8,0-0.8l0.6-0.6l0.3,0.3v3.2l19,19
		h32.8V16.8l17.2,1.3l1.2-2.7l4.1-9h29L587.3,24l23.8-2.2l6.8,27.2v22.9l-3.7,1l-1.1,4.4l-23.9,2.3l-5.3,4.3l-42.2,4.5l-12.6,33.1
		h2.2h2.3l0,0l11.1-29.2h0c0.6-0.1,41.9-4.3,41.9-4.5c0,0,0,0,0,0l0,0c-0.2,0-0.2-0.1-0.2-0.1c0-0.3,0.8-1.1,1.8-2c0,0,0,0,0,0
		c0.1-0.1,0.3-0.2,0.4-0.3c0.1-0.1,0.2-0.2,0.3-0.2c0,0,0.1-0.1,0.1-0.1c0.9-0.8,1.8-1.4,1.8-1.4l25.6-2.5v0l1.2-4.9l0,0l4.4-1.2v0
		V48.6l-7.8-31.2l-25.2,2L572,2.2h-34h0l-5.2,11.5l0,0l-12.7-0.9V2.2h-6.2h0v26.3v0C513.9,28.5,487,28.5,487,28.5z"/>
	<path class="st1" d="M369.7,75.7l-179.1,24.6l0.1,1l184.1-25.3C373,76.1,371.1,75.9,369.7,75.7z"/>
	<polygon class="st1" points="603.6,44.6 603.5,43.6 395.3,72.2 395.7,73.2 	"/>
	<polygon class="st1" points="161.5,92 605,31 609.5,55 198.8,111.5 198.8,111.9 199.3,115.7 204,115 612.3,58.9 614.5,58.6 
		608.3,26.2 156.9,88.3 157,88.4 157.5,92.5 	"/>
	<polygon class="st2" points="381.9,26.2 402.4,26.2 402.4,28.9 408.4,28.9 408.4,11.4 402.4,11.4 402.4,14 381.9,14 	"/>
	<path class="st1" d="M14.2,76L205,63.9V37.7L14.2,49.8V76z M18.4,71.5v-8.8l182.4-11.5v8.8L18.4,71.5z M200.8,50L18.4,61.6v-7.8
		l182.4-11.5V50z"/>
	<path class="st0" d="M518.6,102.4c0.6,0,1-1.3,1-3c0-1.6-0.5-3-1-3s-1,1.3-1,3S518.1,102.4,518.6,102.4z"/>
	<path class="st2" d="M516.2,103.2L516.2,103.2c0,0-8.2,6.7-8.1,6.7s0-2.3,0-2.3l-0.5-0.5l-0.4,0.4v7.1l0.3,0.3l0.6-0.6
		c0,0-0.1-0.7,0-0.8s6.9-2.3,6.9-2.3l0.6,2.7l-4.6,3.3v2.5l7.3-1.8l0.2,0l0.2,0l7.3,1.8v-2.5l-4.6-3.3l0.6-2.7c0,0,6.9,2.3,7,2.3
		s0,0.8,0,0.8l0.6,0.6l0.3-0.3v-7.1l-0.4-0.4l-0.5,0.5c0,0-0.1,2.3,0,2.3s-8.1-6.7-8.1-6.7l0,0c0-1-0.6-2.3-0.6-3.8
		c0-2.9-1.8-9.1-1.8-9.1s-1.8,6.1-1.8,9.1C516.8,100.9,516.3,102.3,516.2,103.2z M518.6,96.5c0.6,0,1,1.3,1,3c0,1.6-0.5,3-1,3
		s-1-1.3-1-3C517.6,97.8,518.1,96.5,518.6,96.5z"/>
	<path class="st0" d="M493.3,102.4c0.6,0,1-1.3,1-3c0-1.6-0.5-3-1-3s-1,1.3-1,3S492.7,102.4,493.3,102.4z"/>
	<path class="st2" d="M490.9,103.2L490.9,103.2c0,0-8.2,6.7-8.1,6.7s0-2.3,0-2.3l-0.5-0.5l-0.4,0.4v7.1l0.3,0.3l0.6-0.6
		c0,0-0.1-0.7,0-0.8s7-2.3,7-2.3l0.6,2.7l-4.6,3.3v2.5l7.3-1.8l0.2,0l0.2,0l7.3,1.8v-2.5l-4.6-3.3l0.6-2.7c0,0,6.9,2.3,7,2.3
		s0,0.8,0,0.8l0.6,0.6l0.3-0.3v-7.1l-0.4-0.4l-0.5,0.5c0,0-0.1,2.3,0,2.3s-8.1-6.7-8.1-6.7l0,0c0-1-0.6-2.3-0.6-3.8
		c0-2.9-1.8-9.1-1.8-9.1s-1.8,6.1-1.8,9.1C491.4,100.9,490.9,102.3,490.9,103.2z M493.3,96.5c0.6,0,1,1.3,1,3c0,1.6-0.5,3-1,3
		s-1-1.3-1-3C492.2,97.8,492.7,96.5,493.3,96.5z"/>
	<path class="st0" d="M467.9,102.4c0.6,0,1-1.3,1-3c0-1.6-0.5-3-1-3s-1,1.3-1,3S467.3,102.4,467.9,102.4z"/>
	<path class="st2" d="M465.5,103.2L465.5,103.2c0,0-8.2,6.7-8.1,6.7s0-2.3,0-2.3l-0.5-0.5l-0.4,0.4v7.1l0.3,0.3l0.6-0.6
		c0,0-0.1-0.7,0-0.8s7-2.3,7-2.3l0.6,2.7l-4.6,3.3v2.5l7.3-1.8l0.2,0l0.2,0l7.3,1.8v-2.5l-4.6-3.3l0.6-2.7c0,0,6.9,2.3,7,2.3
		s0,0.8,0,0.8l0.6,0.6l0.3-0.3v-7.1l-0.4-0.4l-0.5,0.5c0,0-0.1,2.3,0,2.3s-8.1-6.7-8.1-6.7l0,0c0-1-0.6-2.3-0.6-3.8
		c0-2.9-1.8-9.1-1.8-9.1s-1.8,6.1-1.8,9.1C466,100.9,465.5,102.3,465.5,103.2z M467.9,96.5c0.6,0,1,1.3,1,3c0,1.6-0.5,3-1,3
		s-1-1.3-1-3C466.9,97.8,467.3,96.5,467.9,96.5z"/>
	<path class="st0" d="M442.5,102.4c0.6,0,1-1.3,1-3c0-1.6-0.5-3-1-3s-1,1.3-1,3S441.9,102.4,442.5,102.4z"/>
	<path class="st2" d="M440.1,103.2L440.1,103.2c0,0-8.2,6.7-8.1,6.7s0-2.3,0-2.3l-0.5-0.5l-0.4,0.4v7.1l0.3,0.3l0.6-0.6
		c0,0-0.1-0.7,0-0.8s7-2.3,7-2.3l0.6,2.7l-4.6,3.3v2.5l7.3-1.8l0.2,0l0.2,0l7.3,1.8v-2.5l-4.6-3.3l0.6-2.7c0,0,6.9,2.3,7,2.3
		s0,0.8,0,0.8l0.6,0.6l0.3-0.3v-7.1l-0.4-0.4l-0.5,0.5c0,0-0.1,2.3,0,2.3s-8.1-6.7-8.1-6.7l0,0c0-1-0.6-2.3-0.6-3.8
		c0-2.9-1.8-9.1-1.8-9.1s-1.8,6.1-1.8,9.1C440.7,100.9,440.1,102.3,440.1,103.2z M442.5,96.5c0.6,0,1,1.3,1,3c0,1.6-0.5,3-1,3
		s-1-1.3-1-3C441.5,97.8,441.9,96.5,442.5,96.5z"/>
	<path class="st0" d="M453.9,25.8c0,1.6,0.5,3,1,3s1-1.3,1-3c0-1.6-0.5-3-1-3S453.9,24.2,453.9,25.8z"/>
	<path class="st2" d="M466,10.2l-0.6,0.6c0,0,0.1,0.7,0,0.8c0,0-0.1,0-0.2,0.1c-1,0.4-6.8,2.3-6.8,2.3l-0.6-2.7l4.6-3.3V5.4
		l-7.3,1.8l-0.2,0l-0.2,0l-7.3-1.8v2.5l4.6,3.3l-0.6,2.7c0,0-6.9-2.3-7-2.3s0-0.8,0-0.8l-0.6-0.6l-0.3,0.3v7.1l0.4,0.4l0.5-0.4
		c0,0,0.1-2.3,0-2.3s8.1,6.7,8.1,6.7l0,0c0,1,0.6,2.3,0.6,3.8c0,2.9,1.8,9.1,1.8,9.1s1.8-6.1,1.8-9.1c0-1.5,0.5-2.8,0.6-3.8l0,0
		c0,0,8.2-6.7,8.1-6.7s0,2.3,0,2.3l0.5,0.4l0.4-0.4v-3.9v-3.2L466,10.2z M455.9,25.8c0,1.6-0.5,3-1,3s-1-1.3-1-3c0-1.6,0.5-3,1-3
		S455.9,24.2,455.9,25.8z"/>
	<path class="st0" d="M427.1,25.8c0,1.6,0.5,3,1,3s1-1.3,1-3c0-1.6-0.5-3-1-3S427.1,24.2,427.1,25.8z"/>
	<path class="st2" d="M420.7,7.9l4.6,3.3l-0.6,2.7c0,0-6.9-2.3-7-2.3s0-0.8,0-0.8l-0.6-0.6l-0.3,0.3v7.1l0.4,0.4l0.5-0.4
		c0,0,0.1-2.3,0-2.3s8.1,6.7,8.1,6.7l0,0c0,1,0.6,2.3,0.6,3.8c0,2.9,1.8,9.1,1.8,9.1s1.8-6.1,1.8-9.1c0-1.5,0.5-2.8,0.6-3.8l0,0
		c0,0,8.2-6.7,8.1-6.7c-0.1,0,0,2.3,0,2.3l0.5,0.4l0.4-0.4v-7.1l-0.3-0.3l-0.6,0.6c0,0,0.1,0.7,0,0.8s-7,2.3-7,2.3l-0.6-2.7l4.6-3.3
		V5.4l-7.3,1.8l-0.2,0l-0.2,0l-7.3-1.8L420.7,7.9L420.7,7.9z M429.2,25.8c0,1.6-0.5,3-1,3s-1-1.3-1-3c0-1.6,0.5-3,1-3
		S429.2,24.2,429.2,25.8z"/>
	<path class="st0" d="M352.6,25.8c0,1.6,0.5,3,1,3s1-1.3,1-3c0-1.6-0.5-3-1-3S352.6,24.2,352.6,25.8z"/>
	<path class="st2" d="M346.2,7.9l4.6,3.3l-0.6,2.7c0,0-6.9-2.3-7-2.3s0-0.8,0-0.8l-0.6-0.6l-0.3,0.3v7.1l0.4,0.4l0.5-0.4
		c0,0,0.1-2.3,0-2.3s8.1,6.7,8.1,6.7l0,0c0,1,0.6,2.3,0.6,3.8c0,2.9,1.8,9.1,1.8,9.1s1.8-6.1,1.8-9.1c0-1.5,0.5-2.8,0.6-3.8l0,0
		c0,0,8.2-6.7,8.1-6.7c-0.1,0,0,2.3,0,2.3l0.5,0.4l0.4-0.4v-7.1l-0.3-0.3l-0.6,0.6c0,0,0.1,0.7,0,0.8s-7,2.3-7,2.3l-0.6-2.7l4.6-3.3
		V5.4l-7.3,1.8l-0.2,0l-0.2,0l-7.3-1.8L346.2,7.9L346.2,7.9z M354.6,25.8c0,1.6-0.5,3-1,3s-1-1.3-1-3c0-1.6,0.5-3,1-3
		C354.2,22.8,354.6,24.2,354.6,25.8z"/>
	<path class="st0" d="M327.2,25.8c0-1.6-0.5-3-1-3s-1,1.3-1,3c0,1.6,0.5,3,1,3S327.2,27.4,327.2,25.8z"/>
	<path class="st2" d="M328,25.8c0-1.5,0.5-2.8,0.6-3.8l0,0c0,0,8.2-6.7,8.1-6.7c-0.1,0,0,2.3,0,2.3l0.5,0.4l0.4-0.4v-7.1l-0.3-0.3
		l-0.6,0.6c0,0,0.1,0.7,0,0.8s-7,2.3-7,2.3l-0.6-2.7l4.6-3.3V5.4l-7.3,1.8l-0.2,0l-0.2,0l-7.3-1.8v2.5l4.6,3.3l-0.6,2.7
		c0,0-6.9-2.3-7-2.3s0-0.8,0-0.8l-0.6-0.6l-0.3,0.3v7.1l0.4,0.4l0.5-0.4c0,0,0.1-2.3,0-2.3s8.1,6.7,8.1,6.7l0,0c0,1,0.6,2.3,0.6,3.8
		c0,2.9,1.8,9.1,1.8,9.1S328,28.7,328,25.8z M325.1,25.8c0-1.6,0.5-3,1-3s1,1.3,1,3c0,1.6-0.5,3-1,3S325.1,27.4,325.1,25.8z"/>
	<path class="st0" d="M376.8,75.2c1.6-0.2,2.9-0.9,2.8-1.5c-0.1-0.6-1.5-0.8-3.1-0.6c-1.6,0.2-2.9,0.9-2.8,1.4
		C373.8,75.2,375.2,75.4,376.8,75.2z"/>
	<path class="st2" d="M376.9,76c1.5-0.2,2.9,0.1,3.8,0l0,0c0,0,7.8,7.2,7.8,7.1c0-0.1-2.2,0.3-2.2,0.3l-0.4,0.5l0.5,0.3l7.1-1
		l0.3-0.4l-0.7-0.5c0,0-0.7,0.2-0.8,0.1s-3.3-6.5-3.3-6.5l2.6-1l4,4.1l2.5-0.4l-2.2-5.4l-0.4-1l-0.2-0.5v-0.2l0-0.2l0.8-7.5
		l-2.5,0.4l-2.6,5l-2.8-0.2c0,0,1.3-7.1,1.3-7.2c0.1-0.1,0.8-0.1,0.8-0.1l0.5-0.7l-0.4-0.3l-7.1,1l-0.3,0.5l0.5,0.4
		c0,0,2.3-0.2,2.2-0.3c0-0.1-5.4,9-5.4,9l0,0c-1,0.2-2.2,0.9-3.7,1.1c-2.9,0.4-8.7,3.1-8.7,3.1s0.8,0.1,2,0.3
		c1.4,0.2,3.4,0.3,5.1,0.4C375.5,76.1,376.3,76.1,376.9,76z M373.7,74.6c-0.1-0.6,1.2-1.2,2.8-1.4c1.6-0.2,3,0,3.1,0.6
		c0.1,0.6-1.2,1.2-2.8,1.5C375.2,75.4,373.8,75.2,373.7,74.6z"/>
	<path class="st0" d="M225.6,22.8c-0.6,0-1,1.3-1,3c0,1.6,0.5,3,1,3c0.6,0,1-1.3,1-3S226.1,22.8,225.6,22.8z"/>
	<path class="st2" d="M228,22L228,22c0,0,8.2-6.7,8.1-6.7s0,2.3,0,2.3l0.4,0.4l0.4-0.4v-7.1l-0.3-0.3l-0.6,0.6c0,0,0.1,0.7,0,0.8
		S229,14,229,14l-0.6-2.7l4.6-3.3V5.4l-7.3,1.8l-0.2,0l-0.2,0l-7.3-1.8v2.5l4.6,3.3l-0.6,2.7c0,0-6.9-2.3-6.9-2.3
		c-0.1-0.1,0-0.8,0-0.8l-0.6-0.6l-0.3,0.3v7.1l0.4,0.4l0.4-0.4c0,0,0.1-2.3,0-2.3s8.1,6.7,8.1,6.7l0,0c0,1,0.6,2.3,0.6,3.8
		c0,2.9,1.8,9.1,1.8,9.1s1.8-6.1,1.8-9.1C227.4,24.3,227.9,23,228,22z M225.6,28.8c-0.6,0-1-1.3-1-3c0-1.6,0.5-3,1-3
		c0.6,0,1,1.3,1,3S226.1,28.8,225.6,28.8z"/>
</g>
</svg>
