<?xml version="1.0" encoding="utf-8"?>
<!-- Generator: Adobe Illustrator 27.2.0, SVG Export Plug-In . SVG Version: 6.00 Build 0)  -->
<svg version="1.1" id="Layer_1" xmlns="http://www.w3.org/2000/svg" xmlns:xlink="http://www.w3.org/1999/xlink" x="0px" y="0px"
	 viewBox="0 0 379 122.3" style="enable-background:new 0 0 379 122.3;" xml:space="preserve">
<style type="text/css">
	.st0{fill:#006837;}
	.st1{fill:#00B400;}
	.st2{fill:#00FF00;}
</style>
<g>
	<g>
		<g>
			<path class="st0" d="M376.8,83.1c-30.5,22.5-100.9,37-180.1,37c-96.3,0-177.3-49-192.9-59c15.5-10,96.6-59,192.9-59
				c79.2,0,149.6,14.5,180.1,37L376.8,83.1L376.8,83.1z"/>
			<path class="st1" d="M7.9,61.1C28.7,48.2,105.9,4.3,196.8,4.3c76.8,0,147.7,14.4,177.9,35.9V82c-30.2,21.6-101.2,35.9-177.9,35.9
				C105.9,117.9,28.7,74.1,7.9,61.1 M0,61.1c0,0,88.1,61.1,196.8,61.1c82.4,0,152.9-15.7,182.2-38.1V38.1
				C349.7,15.7,279.2,0,196.8,0C88.1,0,0,61.1,0,61.1L0,61.1z"/>
		</g>
	</g>
	<g>
		<g>
			<g>
				<path class="st1" d="M90.3,48.3v2.6H62.6v3.9h27.7v4.4H62.6v3.9h27.7v4.4H62.6v3.9h27.7v2.6c0,4.1,3.3,7.4,7.4,7.4h15.1
					c4.1,0,7.4-3.3,7.4-7.4V48.3c0-4.1-3.3-7.4-7.4-7.4H97.7C93.7,40.9,90.3,44.2,90.3,48.3z"/>
			</g>
		</g>
		<g>
			<g>
				<polygon class="st1" points="142,18 142,27.5 136.4,27.5 123.3,38.9 123.3,82.2 136.4,93.6 142,93.6 142,104.2 150.5,104.2 
					150.5,93.6 177.7,93.6 177.7,27.5 150.5,27.5 150.5,18 				"/>
			</g>
		</g>
	</g>
	<g>
		<g>
			<g>
				<polygon class="st1" points="184.4,34.7 184.4,87.6 215,114 245.6,87.6 245.6,34.7 215,8.2 				"/>
			</g>
		</g>
		<g>
			<g>
				<circle class="st1" cx="189.5" cy="106.9" r="5.1"/>
				<circle class="st1" cx="245.6" cy="106.9" r="5.1"/>
				<circle class="st1" cx="189.5" cy="15.3" r="5.1"/>
				<circle class="st1" cx="245.6" cy="15.3" r="5.1"/>
			</g>
		</g>
		<g>
			<g>
				<polygon class="st2" points="197.3,48.1 197.3,61.1 197.3,74.2 215,85.4 232.7,85.4 232.7,61.1 232.7,36.9 215,36.9 				"/>
			</g>
		</g>
	</g>
	<g>
		<rect x="278.8" y="36.5" class="st1" width="49.2" height="49.2"/>
		<g>
			<path class="st2" d="M288.8,69.6H301V52.7h-12.2v-4.6H318v4.6h-13.7v16.9H318v4.5h-29.2V69.6z"/>
		</g>
	</g>
	<g>
		<g>
			<g>
				<g>
					
						<ellipse transform="matrix(0.2809 -0.9597 0.9597 0.2809 159.9244 330.507)" class="st0" cx="300.5" cy="58.5" rx="6.4" ry="10"/>
					
						<ellipse transform="matrix(0.2809 -0.9597 0.9597 0.2809 160.6308 332.4052)" class="st1" cx="302.1" cy="59" rx="6.4" ry="10"/>
					
						<ellipse transform="matrix(0.2809 -0.9597 0.9597 0.2809 161.3871 334.4206)" class="st0" cx="303.9" cy="59.5" rx="7.1" ry="10"/>
					<polygon class="st0" points="327.5,65.8 327.1,66.9 307.9,63.4 309.4,58.4 					"/>
					<polygon class="st0" points="327.9,61.5 324.3,65.5 325.2,70.7 325.9,70.9 328.6,61.8 					"/>
				</g>
				<path class="st1" d="M307.2,60.5L307.2,60.5c-0.4,1.4-1.9,2.2-3.3,1.8l-1.7-0.5c-1.4-0.4-2.2-1.9-1.8-3.3l0,0
					c0.4-1.4,1.9-2.2,3.3-1.8l1.7,0.5C306.9,57.6,307.6,59.1,307.2,60.5z"/>
			</g>
		</g>
		<g>
			<rect x="272.8" y="59" transform="matrix(0.2809 -0.9597 0.9597 0.2809 161.4063 334.405)" width="62.2" height="1"/>
			<rect x="303.4" y="28.4" transform="matrix(0.7232 -0.6907 0.6907 0.7232 43.0332 226.351)" width="1" height="62.2"/>
			<g>
				<rect x="272.8" y="59" transform="matrix(0.9716 -0.2366 0.2366 0.9716 -5.4524 73.5837)" width="62.2" height="1"/>
			</g>
		</g>
	</g>
</g>
</svg>
