<?xml version="1.0" encoding="utf-8"?>
<!-- Generator: Adobe Illustrator 27.2.0, SVG Export Plug-In . SVG Version: 6.00 Build 0)  -->
<svg version="1.1" id="Layer_1" xmlns="http://www.w3.org/2000/svg" xmlns:xlink="http://www.w3.org/1999/xlink" x="0px" y="0px"
	 viewBox="0 0 338.7 122.3" style="enable-background:new 0 0 338.7 122.3;" xml:space="preserve">
<style type="text/css">
	.st0{fill:#006837;}
	.st1{fill:#00B400;}
	.st2{fill:#00FF00;}
</style>
<g>
	<g>
		<g>
			<path class="st0" d="M335.7,82.8c-27.2,22.2-89.7,36.5-159.9,36.5c-84.1,0-155.1-47-170.8-58.2C20.7,50,91.7,3,175.8,3
				c70.2,0,132.7,14.3,159.9,36.5V82.8z"/>
			<path class="st1" d="M10.2,61.1C30.9,47,97.7,5.9,175.8,5.9c67.6,0,129.9,14,156.9,35v40.5c-26.9,21-89.3,34.9-156.9,34.9
				C97.7,116.3,30.9,75.2,10.2,61.1 M0,61.1c0,0,78.7,61.1,175.8,61.1c73.6,0,136.7-15.7,162.8-38.1V38.1
				C312.5,15.7,249.5,0,175.8,0C78.7,0,0,61.1,0,61.1L0,61.1z"/>
		</g>
	</g>
	<g>
		<g>
			<g>
				<path class="st1" d="M83.2,48.5v2.6H55.9v3.8h27.3v4.3H55.9V63h27.3v4.3H55.9v3.8h27.3v2.6c0,4,3.3,7.3,7.3,7.3h14.8
					c4,0,7.3-3.3,7.3-7.3V48.6c0-4-3.3-7.3-7.3-7.3H90.5C86.5,41.3,83.2,44.5,83.2,48.5z"/>
			</g>
		</g>
	</g>
	<g>
		<g>
			<g>
				<polygon class="st1" points="125.7,35.9 125.7,86.4 155,111.7 184.2,86.4 184.2,35.9 155,10.6 				"/>
			</g>
		</g>
		<g>
			<g>
				<circle class="st1" cx="130.6" cy="104.8" r="4.9"/>
				<circle class="st1" cx="184.2" cy="104.8" r="4.9"/>
				<circle class="st1" cx="130.6" cy="17.4" r="4.9"/>
				<circle class="st1" cx="184.2" cy="17.4" r="4.9"/>
			</g>
		</g>
		<g>
			<g>
				<polygon class="st2" points="138.1,48.7 138.1,61.1 138.1,73.6 155,84.3 171.8,84.3 171.8,61.1 171.8,38 155,38 				"/>
			</g>
		</g>
	</g>
	<g>
		<g>
			<polygon class="st2" points="321.3,48.7 321.3,61.1 321.3,73.6 304.4,84.3 287.5,84.3 287.5,61.1 287.5,38 304.4,38 			"/>
		</g>
	</g>
	<g>
		<g>
			<polygon class="st1" points="249.1,96.8 249.1,88.9 256.9,88.9 275.2,79.5 275.2,43.7 256.9,34.3 249.1,34.3 249.1,25.5 
				237.1,25.5 237.1,34.3 199,34.3 199,88.9 237.1,88.9 237.1,96.8 			"/>
		</g>
	</g>
	<g>
		<g>
			<g>
				<polygon class="st2" points="221.4,79.3 250.3,79.3 264.7,62.5 250.3,45.8 221.4,45.8 206.9,62.5 				"/>
			</g>
		</g>
		<g>
			<g>
				<circle class="st2" cx="260.8" cy="76.5" r="2.8"/>
				<circle class="st2" cx="260.8" cy="45.8" r="2.8"/>
				<circle class="st2" cx="210.8" cy="76.5" r="2.8"/>
				<circle class="st2" cx="210.8" cy="45.8" r="2.8"/>
			</g>
		</g>
	</g>
</g>
</svg>
