<?xml version="1.0" encoding="utf-8"?>
<!-- Generator: Adobe Illustrator 27.2.0, SVG Export Plug-In . SVG Version: 6.00 Build 0)  -->
<svg version="1.1" id="Layer_1" xmlns="http://www.w3.org/2000/svg" xmlns:xlink="http://www.w3.org/1999/xlink" x="0px" y="0px"
	 viewBox="0 0 421.5 122.3" style="enable-background:new 0 0 421.5 122.3;" xml:space="preserve">
<style type="text/css">
	.st0{opacity:0.85;}
	.st1{fill:#006837;}
	.st2{fill:#00B400;}
</style>
<g class="st0">
	<g>
		<path class="st1" d="M358.2,108.2H49.7C22.4,108.2,0,87,0,61.1l0,0c0-25.9,22.4-47.1,49.8-47.1h308.4c4.9,0,9.5,2,12.7,5.5
			l14.7,16v51.2l-14.7,16C367.6,106.2,363,108.2,358.2,108.2z"/>
	</g>
	<g>
		<polygon class="st1" points="421.5,14.1 421.5,108.2 403.8,108.2 385.6,86.7 385.6,35.6 403.8,14.1 		"/>
	</g>
	<g>
		<g>
			<rect x="74.1" y="14.1" class="st2" width="0.2" height="94.1"/>
		</g>
		<g>
			<g>
				<ellipse class="st2" cx="69.4" cy="103.4" rx="2.2" ry="1.5"/>
			</g>
			<g>
				<ellipse class="st2" cx="69.4" cy="86.5" rx="2.2" ry="1.5"/>
			</g>
			<g>
				<ellipse class="st2" cx="69.4" cy="69.6" rx="2.2" ry="1.5"/>
			</g>
			<g>
				<ellipse class="st2" cx="69.4" cy="52.7" rx="2.2" ry="1.5"/>
			</g>
			<g>
				<ellipse class="st2" cx="69.4" cy="35.7" rx="2.2" ry="1.5"/>
			</g>
			<g>
				<ellipse class="st2" cx="69.4" cy="18.8" rx="2.2" ry="1.5"/>
			</g>
		</g>
	</g>
	<g>
		<g>
			<rect x="325.3" y="14.1" class="st2" width="0.2" height="94.1"/>
		</g>
		<g>
			<g>
				<ellipse class="st2" cx="320.6" cy="103.4" rx="2.2" ry="1.5"/>
			</g>
			<g>
				<ellipse class="st2" cx="320.6" cy="86.5" rx="2.2" ry="1.5"/>
			</g>
			<g>
				<ellipse class="st2" cx="320.6" cy="69.6" rx="2.2" ry="1.5"/>
			</g>
			<g>
				<ellipse class="st2" cx="320.6" cy="52.7" rx="2.2" ry="1.5"/>
			</g>
			<g>
				<ellipse class="st2" cx="320.6" cy="35.7" rx="2.2" ry="1.5"/>
			</g>
			<g>
				<ellipse class="st2" cx="320.6" cy="18.8" rx="2.2" ry="1.5"/>
			</g>
		</g>
	</g>
	<g>
		<g>
			<g>
				<polygon class="st2" points="235.1,0 235.1,122.3 217.3,122.3 199,83.1 199,39.2 217.3,0 				"/>
			</g>
			<g>
				<ellipse class="st2" cx="210.7" cy="61.1" rx="38.2" ry="24.9"/>
			</g>
		</g>
	</g>
</g>
</svg>
